<?xml version="1.0" encoding="iso-8859-1"?>
<!-- Uploaded to: SVG Repo, www.svgrepo.com, Generator: SVG Repo Mixer Tools -->
<svg fill="#FFF" height="800px" width="800px" version="1.1" id="Layer_1" xmlns="http://www.w3.org/2000/svg" xmlns:xlink="http://www.w3.org/1999/xlink"
	 viewBox="0 0 512 512" xml:space="preserve">
<g>
	<g>
		<g>
			<path d="M438.939,482.585c13.775,0,24.983-11.208,24.983-24.983s-11.208-24.983-24.983-24.983
				c-13.775,0-24.982,11.208-24.982,24.983S425.164,482.585,438.939,482.585z M438.939,449.061c4.709,0,8.54,3.83,8.54,8.54
				s-3.83,8.54-8.54,8.54c-4.708,0-8.539-3.83-8.539-8.54S434.23,449.061,438.939,449.061z"/>
			<path d="M73.06,29.415c-13.775,0-24.983,11.208-24.983,24.983c0,13.776,11.208,24.984,24.983,24.984
				c13.775,0,24.983-11.208,24.983-24.984C98.043,40.623,86.836,29.415,73.06,29.415z M73.06,62.939c-4.709,0-8.54-3.831-8.54-8.541
				c0-4.709,3.83-8.54,8.54-8.54c4.708,0,8.539,3.83,8.539,8.54C81.599,59.107,77.768,62.939,73.06,62.939z"/>
			<path d="M438.939,29.415c-13.775,0-24.982,11.208-24.982,24.983c0,13.776,11.207,24.984,24.982,24.984
				c13.775,0,24.983-11.208,24.983-24.984C463.922,40.623,452.715,29.415,438.939,29.415z M438.939,62.939
				c-4.708,0-8.539-3.831-8.539-8.541c0-4.709,3.83-8.54,8.539-8.54c4.709,0,8.54,3.83,8.54,8.54
				C447.478,59.107,443.648,62.939,438.939,62.939z"/>
			<path d="M481.255,0H30.745C13.792,0,0,13.792,0,30.745v450.51C0,498.208,13.792,512,30.745,512h450.51
				C498.208,512,512,498.208,512,481.255V30.745C512,13.792,498.208,0,481.255,0z M16.443,30.745
				c0-7.885,6.416-14.301,14.301-14.301h450.51c7.885,0,14.301,6.416,14.301,14.301v61.609H16.443V30.745z M418.936,108.797
				l-6.047,3.023v-3.023H418.936z M396.445,108.797v11.245l-82.667,41.333v-52.578H396.445z M297.334,108.797v60.8l-82.669,41.334
				V108.797H297.334z M198.222,108.797v110.356l-82.668,41.333V108.797H198.222z M16.443,108.797h82.668v159.911l-82.668,41.334
				V108.797z M495.557,481.255c0,7.885-6.416,14.301-14.301,14.301H30.745c-7.885,0-14.301-6.416-14.301-14.301v-61.609h479.113
				V481.255z M91.264,403.203l7.847-3.907v3.907H91.264z M115.554,403.203v-12.091l82.668-41.152v53.244H115.554z M214.665,403.203
				v-61.429l82.177-40.908v102.337H214.665z M313.286,403.203V292.679l83.159-41.398v151.922H313.286z M495.557,403.203h-82.668
				V243.097l82.668-41.152V403.203z M495.557,183.576L54.366,403.203H16.443v-74.777l439.26-219.629h39.853V183.576z"/>
			<path d="M73.06,482.585c13.775,0,24.982-11.208,24.982-24.983s-11.207-24.983-24.982-24.983
				c-13.775,0-24.983,11.208-24.983,24.983S59.285,482.585,73.06,482.585z M73.06,449.061c4.708,0,8.539,3.83,8.539,8.54
				s-3.83,8.54-8.539,8.54c-4.709,0-8.54-3.83-8.54-8.54S68.352,449.061,73.06,449.061z"/>
		</g>
	</g>
</g>
</svg>
